<?xml version="1.0" encoding="UTF-8"?>
<svg width="16px" height="14px" viewBox="0 0 16 14" version="1.1" xmlns="http://www.w3.org/2000/svg" xmlns:xlink="http://www.w3.org/1999/xlink">
    <!-- Generator: Sketch 43.1 (39012) - http://www.bohemiancoding.com/sketch -->
    <title>noun_929850_cc</title>
    <desc>Created with Sketch.</desc>
    <defs></defs>
    <g id="Page-2" stroke="none" stroke-width="1" fill="none" fill-rule="evenodd">
        <g id="home" transform="translate(-1023.000000, -1105.000000)" fill="#D1D1D1">
            <g id="Group-5-Copy-4" transform="translate(1005.000000, 883.000000)">
                <g id="noun_929850_cc" transform="translate(26.000000, 229.000000) rotate(-270.000000) translate(-26.000000, -229.000000) translate(19.000000, 221.000000)">
                    <g id="Group">
                        <g transform="translate(0.000000, 0.637820)" id="Shape">
                            <path d="M5.84744014,0.264948492 L0.303703307,5.48233111 C-0.0140030837,5.83587445 -0.145155203,6.51380895 0.222181601,6.90897074 C0.58397493,7.29818797 1.28564855,7.28661189 1.64887666,6.89886205 L5.54173375,3.23038531 L5.54173375,14.0217395 C5.54173375,14.5620002 5.97973357,15 6.52002682,15 C7.06032007,15 7.49831989,14.5620002 7.49831989,14.0217395 L7.49831989,3.23038531 L11.391177,6.89886205 C11.725579,7.23267713 12.4519374,7.29437276 12.817872,6.90897074 C13.1837741,6.52365677 13.0668719,5.82136358 12.7363177,5.48233111 L7.1926135,0.264948492 C7.00289618,0.0864159576 6.78030932,-0.000584006349 6.52002682,2.94992972e-06 C6.28687474,0.00913338093 6.01739659,0.105100733 5.84744014,0.264948492 Z"></path>
                        </g>
                    </g>
                </g>
            </g>
        </g>
    </g>
</svg>