<?xml version="1.0" encoding="UTF-8"?>
<svg width="40px" height="27px" viewBox="0 0 40 27" version="1.1" xmlns="http://www.w3.org/2000/svg" xmlns:xlink="http://www.w3.org/1999/xlink">
    <!-- Generator: Sketch 43.1 (39012) - http://www.bohemiancoding.com/sketch -->
    <title>Shape</title>
    <desc>Created with Sketch.</desc>
    <defs></defs>
    <g id="Page-2" stroke="none" stroke-width="1" fill="none" fill-rule="evenodd">
        <g id="home" transform="translate(-975.000000, -3202.000000)" fill="#FFFFFF">
            <g id="footer" transform="translate(-1.000000, 3166.000000)">
                <g id="noun_565415_cc" transform="translate(976.000000, 36.000000)">
                    <g id="Group">
                        <g transform="translate(0.000000, 0.318910)" id="Shape">
                            <path d="M1.015625,0.18109 L19.171875,16.3686 C19.59679,16.74755 20.40321,16.74755 20.828125,16.3686 L38.984375,0.18109 L1.015625,0.18109 L1.015625,0.18109 Z M0,1.94669 L0,24.64985 L13.203125,13.728 L0,1.94669 L0,1.94669 Z M40,1.94669 L26.796875,13.728 L40,24.64985 L40,1.94669 L40,1.94669 Z M14.71875,15.0717 L1.296875,26.1811 L38.703125,26.1811 L25.28125,15.0717 L22.171875,17.853 C20.94263,18.94925 19.05737,18.94925 17.828125,17.853 L14.71875,15.0717 L14.71875,15.0717 Z"></path>
                        </g>
                    </g>
                </g>
            </g>
        </g>
    </g>
</svg>