<?xml version="1.0" encoding="UTF-8"?>
<svg width="22px" height="25px" viewBox="0 0 22 25" version="1.1" xmlns="http://www.w3.org/2000/svg" xmlns:xlink="http://www.w3.org/1999/xlink">
    <!-- Generator: Sketch 43.1 (39012) - http://www.bohemiancoding.com/sketch -->
    <title>Shape</title>
    <desc>Created with Sketch.</desc>
    <defs></defs>
    <g id="Page-2" stroke="none" stroke-width="1" fill="none" fill-rule="evenodd">
        <g id="specialites" transform="translate(-710.000000, -604.000000)" fill="#FFFFFF">
            <g id="Group-4" transform="translate(683.000000, 579.000000)">
                <path d="M36.7457336,25.4415808 L27.5061722,34.1372185 C26.9766615,34.7264574 26.7580747,35.8563482 27.3703027,36.5149512 C27.9732915,37.1636466 29.1427476,37.1443531 29.7481278,36.4981034 L36.2362229,30.3839755 L36.2362229,48.3695659 C36.2362229,49.2700003 36.9662226,50 37.8667114,50 C38.7672001,50 39.4971998,49.2700003 39.4971998,48.3695659 L39.4971998,30.3839755 L45.985295,36.4981034 C46.5426317,37.0544619 47.753229,37.1572879 48.3631201,36.5149512 C48.9729568,35.8727613 48.7781199,34.7022726 48.2271962,34.1372185 L38.9876892,25.4415808 C38.6714936,25.1440266 38.3005155,24.9990267 37.8667114,25.0000049 C37.4781246,25.0152223 37.0289943,25.1751679 36.7457336,25.4415808 Z" id="Shape" transform="translate(37.869562, 37.500000) rotate(180.000000) translate(-37.869562, -37.500000) "></path>
            </g>
        </g>
    </g>
</svg>