<?xml version="1.0" encoding="UTF-8" standalone="no"?>
<svg width="122px" height="122px" viewBox="0 0 122 122" version="1.1" xmlns="http://www.w3.org/2000/svg" xmlns:xlink="http://www.w3.org/1999/xlink">
    <!-- Generator: Sketch 3.7 (28169) - http://www.bohemiancoding.com/sketch -->
    <title>Group 5</title>
    <desc>Created with Sketch.</desc>
    <defs></defs>
    <g id="Page-1" stroke="none" stroke-width="1" fill="none" fill-rule="evenodd">
        <g id="home" transform="translate(-923.000000, -344.000000)" fill="#FFFFFF">
            <g id="Group-2">
                <g id="Group-5" transform="translate(923.000000, 344.000000)">
                    <path d="M60.7689903,121.567538 C94.3307769,121.567538 121.537981,94.3537173 121.537981,60.7837688 C121.537981,27.2138202 94.3307769,0 60.7689903,0 C27.2072037,0 0,27.2138202 0,60.7837688 C0,94.3537173 27.2072037,121.567538 60.7689903,121.567538 L60.7689903,121.567538 Z M60.7689903,116.164536 C30.1904736,116.164536 5.40168803,91.3697219 5.40168803,60.7837688 C5.40168803,30.1978157 30.1904736,5.40300167 60.7689903,5.40300167 C91.347507,5.40300167 116.136293,30.1978157 116.136293,60.7837688 C116.136293,91.3697219 91.347507,116.164536 60.7689903,116.164536 L60.7689903,116.164536 Z" id="Oval-1"></path>
                    <path d="M33.8779675,50.7830433 C31.9241458,48.8287464 32.5067725,46.7044933 35.2014292,46.0328759 L76.6605409,35.6995884 C79.3452904,35.0304402 81.0616083,36.6740431 80.49063,39.3869 L71.4338596,82.4178266 C70.86441,85.1234207 68.8199422,85.7335155 66.8650727,83.7781706 L33.8779675,50.7830433 Z" id="Rectangle-40" transform="translate(56.661970, 60.236891) rotate(-315.000000) translate(-56.661970, -60.236891) "></path>
                </g>
            </g>
        </g>
    </g>
</svg>